<?xml version="1.0" encoding="utf-8"?>
<svg viewBox="292.044 83.8445 53.3917 7.9663" xmlns="http://www.w3.org/2000/svg">
  <path style="opacity: 0.54; fill: rgb(255, 255, 255);" d="M 310.845 87.433 C 310.845 87.433 313.603 87.191 314.028 86.886 C 314.452 86.582 316.107 86.219 316.362 86.279 C 316.617 86.34 318.06 86.158 318.102 85.915 C 318.144 85.672 327.693 83.728 328.414 83.85 C 329.135 83.971 331.385 84.396 331.724 84.396 C 332.063 84.396 344.455 86.947 345.134 87.433 C 345.813 87.919 345.134 89.011 345.134 89.011 C 345.134 89.011 341.442 89.802 340.763 89.498 C 340.084 89.194 339.872 88.891 339.108 88.83 C 338.344 88.77 338.726 88.709 338.132 88.77 C 337.538 88.83 338.259 88.649 336.986 88.891 C 335.713 89.133 335.628 89.576 334.907 89.567 C 334.185 89.558 332.658 90.348 331.639 90.348 C 330.62 90.348 331.002 90.348 330.62 90.348 C 330.238 90.348 330.238 90.288 329.686 90.348 C 329.134 90.409 329.728 90.044 328.795 90.348 C 327.861 90.651 327.182 90.651 327.182 90.834 C 327.182 91.016 327.178 91.767 326.754 91.592 C 326.33 91.418 326.546 91.866 325.782 91.805 C 325.018 91.745 323.787 91.805 323.066 91.683 C 322.345 91.562 321.029 91.502 320.817 91.379 C 320.605 91.259 320.011 90.954 319.204 90.954 C 318.398 90.954 315.852 91.076 314.112 91.076 C 312.372 91.076 310.094 91.44 308.581 90.65 C 307.068 89.86 307.237 89.496 304.479 89.436 C 301.721 89.375 300.235 89.922 298.75 89.556 C 297.265 89.192 297.816 89.192 295.397 88.585 C 292.978 87.978 292.044 87.98 292.044 87.98 C 292.044 87.98 292.341 87.31 292.808 87.31 C 293.275 87.31 302.017 87.006 302.144 87.006 C 302.271 87.006 305.497 87.006 305.751 87.006 C 306.006 87.006 307.279 87.189 307.449 87.189 C 307.619 87.189 309.528 87.189 309.741 87.189 C 309.954 87.191 310.845 87.433 310.845 87.433 Z" transform="matrix(0.9999999999999999, 0, 0, 0.9999999999999999, 0, 0)"/>
</svg>